<svg width="32" height="33" viewBox="0 0 32 33" fill="none" xmlns="http://www.w3.org/2000/svg">
<path d="M3.395 13.708C3.648 14.058 4.005 14.321 4.414 14.458L6.814 15.24C7.53701 15.4812 8.17216 15.9315 8.639 16.534C8.905 16.878 9.111 17.264 9.247 17.678L10.039 20.108C10.1802 20.5152 10.4449 20.8681 10.7962 21.1177C11.1476 21.3672 11.5681 21.5008 11.999 21.5C12.4309 21.5018 12.8524 21.3678 13.204 21.117C13.557 20.857 13.824 20.497 13.971 20.084L14.752 17.682C14.942 17.116 15.26 16.602 15.682 16.178C16.1012 15.757 16.6132 15.4402 17.177 15.253L19.621 14.459C19.9226 14.3514 20.1952 14.1756 20.4175 13.9452C20.6398 13.7148 20.8058 13.4361 20.9026 13.1308C20.9993 12.8256 21.0241 12.5022 20.9751 12.1858C20.9261 11.8694 20.8046 11.5686 20.62 11.307C20.3534 10.9349 19.974 10.6585 19.538 10.519L17.132 9.73997C16.5661 9.5526 16.0518 9.23571 15.6299 8.81455C15.208 8.39338 14.8903 7.87956 14.702 7.31397L13.908 4.87397C13.766 4.47019 13.5018 4.12067 13.152 3.87397C12.7993 3.63013 12.3808 3.49951 11.952 3.49951C11.5232 3.49951 11.1047 3.63013 10.752 3.87397C10.3925 4.12685 10.1228 4.4876 9.982 4.90397L9.184 7.35997C8.9956 7.9091 8.68545 8.40851 8.27676 8.82083C7.86808 9.23315 7.37144 9.54771 6.824 9.74097L4.384 10.531C4.07922 10.6386 3.80375 10.8158 3.57952 11.0486C3.35528 11.2813 3.18846 11.5632 3.09233 11.8718C2.9962 12.1804 2.97342 12.5071 3.02579 12.8261C3.07816 13.145 3.20424 13.4473 3.394 13.709M12.007 19.5H11.995C11.9811 19.5001 11.9675 19.496 11.956 19.4884C11.9444 19.4807 11.9354 19.4698 11.93 19.457L11.148 17.058L11.147 17.053C10.94 16.4229 10.6264 15.833 10.22 15.309L10.218 15.306C9.50955 14.3925 8.54635 13.7095 7.45 13.343L7.442 13.341L5.049 12.562C5.03475 12.556 5.02254 12.546 5.01384 12.5332C5.00515 12.5204 5.00034 12.5054 5 12.49C5.00026 12.4754 5.0045 12.4612 5.01226 12.4488C5.02001 12.4365 5.03099 12.4265 5.044 12.42L7.464 11.635L7.489 11.626C8.32113 11.3323 9.07604 10.8543 9.69723 10.2275C10.3184 9.6008 10.7898 8.84167 11.076 8.00697L11.081 7.99197L11.879 5.54097C11.883 5.5303 11.889 5.5213 11.897 5.51397C11.9137 5.50432 11.9327 5.49923 11.952 5.49923C11.9713 5.49923 11.9903 5.50432 12.007 5.51397C12.0123 5.51864 12.0163 5.52464 12.019 5.53197L12.801 7.93197L12.805 7.94397C13.0915 8.80542 13.5751 9.58806 14.2175 10.2296C14.8599 10.8711 15.6432 11.3537 16.505 11.639L18.921 12.422L18.929 12.424C18.9526 12.4319 18.9734 12.4465 18.989 12.466C18.9967 12.4778 19.0006 12.4917 19.0002 12.5058C18.9999 12.5199 18.9953 12.5335 18.987 12.545L18.986 12.547C18.9779 12.5567 18.9681 12.5649 18.957 12.571L16.559 13.351L16.547 13.355C15.6865 13.6405 14.9049 14.1237 14.265 14.766C13.6262 15.408 13.1437 16.1885 12.855 17.047L12.853 17.056L12.083 19.424C12.0716 19.4507 12.0545 19.4745 12.033 19.494L12.007 19.5ZM25.653 20.341C25.7682 20.6831 25.9613 20.9938 26.2171 21.2486C26.4729 21.5034 26.7844 21.6952 27.127 21.809L28.782 22.349C29.1308 22.4572 29.4364 22.6729 29.6553 22.9653C29.8741 23.2576 29.9949 23.6117 30.0005 23.9768C30.006 24.342 29.896 24.6995 29.6861 24.9984C29.4763 25.2973 29.1773 25.5222 28.832 25.641L27.159 26.187C26.8159 26.2996 26.5042 26.4915 26.249 26.747C25.9939 27.0038 25.8012 27.3158 25.686 27.659L25.148 29.309C25.0277 29.6588 24.8003 29.9618 24.498 30.175C24.2081 30.3833 23.8609 30.4968 23.504 30.5C23.1439 30.5013 22.7924 30.3903 22.4984 30.1824C22.2044 29.9744 21.9826 29.68 21.864 29.34L21.316 27.664C21.2042 27.3195 21.0127 27.0064 20.757 26.75C20.4998 26.4939 20.1871 26.3005 19.843 26.185L18.19 25.65C17.8395 25.5305 17.536 25.3029 17.323 25C17.1665 24.7809 17.0632 24.5284 17.0213 24.2625C16.9795 23.9965 17.0002 23.7245 17.0818 23.4679C17.1634 23.2114 17.3037 22.9774 17.4916 22.7845C17.6795 22.5917 17.9097 22.4453 18.164 22.357L19.845 21.809C20.1814 21.6904 20.486 21.4962 20.7355 21.2414C20.985 20.9865 21.1726 20.6778 21.284 20.339L21.819 18.689C21.904 18.4308 22.0486 18.1963 22.2411 18.0044C22.4335 17.8125 22.6684 17.6685 22.9268 17.5842C23.1852 17.4999 23.4598 17.4776 23.7284 17.5191C23.997 17.5605 24.2521 17.6646 24.473 17.823C24.768 18.03 24.99 18.325 25.107 18.665L25.653 20.341ZM26.496 23.707C25.8592 23.4954 25.2803 23.1388 24.805 22.6652C24.3296 22.1916 23.9709 21.614 23.757 20.978L23.754 20.969L23.467 20.089L23.182 20.969C22.972 21.599 22.622 22.173 22.158 22.648L22.153 22.653C21.6919 23.1218 21.1295 23.4786 20.509 23.696L20.487 23.703L19.582 23.998L20.469 24.285L20.479 24.289C21.115 24.502 21.693 24.859 22.169 25.333L22.171 25.335C22.651 25.815 23.009 26.4 23.218 27.045L23.219 27.049L23.501 27.909L23.787 27.031L23.79 27.023C24.003 26.3893 24.3588 25.8132 24.83 25.339C25.3086 24.8581 25.8942 24.4972 26.539 24.286L27.405 24.003L26.496 23.707Z" fill="#333333"/>
</svg>
