<svg width="32" height="33" viewBox="0 0 32 33" fill="none" xmlns="http://www.w3.org/2000/svg">
<path fill-rule="evenodd" clip-rule="evenodd" d="M16 5.29999C9.104 5.29999 3.2 10.1528 3.2 16.5C3.2 19.7384 4.7648 22.62 7.1984 24.636C7.17608 25.6303 6.88767 26.6005 6.3632 27.4456C6.25445 27.6212 6.19286 27.8218 6.18438 28.0282C6.17589 28.2345 6.2208 28.4395 6.31477 28.6234C6.40873 28.8073 6.54856 28.9639 6.72074 29.0779C6.89292 29.192 7.09161 29.2596 7.2976 29.2744C9.53995 29.4424 11.7698 28.8147 13.5952 27.5016C14.3744 27.6328 15.1792 27.7 16 27.7C22.896 27.7 28.8 22.8472 28.8 16.5C28.8 10.1528 22.896 5.29999 16 5.29999ZM16 18.1C16.4243 18.1 16.8313 17.9314 17.1314 17.6314C17.4314 17.3313 17.6 16.9243 17.6 16.5C17.6 16.0756 17.4314 15.6687 17.1314 15.3686C16.8313 15.0686 16.4243 14.9 16 14.9C15.5757 14.9 15.1687 15.0686 14.8686 15.3686C14.5686 15.6687 14.4 16.0756 14.4 16.5C14.4 16.9243 14.5686 17.3313 14.8686 17.6314C15.1687 17.9314 15.5757 18.1 16 18.1ZM12.8 16.5C12.8 16.9243 12.6314 17.3313 12.3314 17.6314C12.0313 17.9314 11.6243 18.1 11.2 18.1C10.7757 18.1 10.3687 17.9314 10.0686 17.6314C9.76857 17.3313 9.6 16.9243 9.6 16.5C9.6 16.0756 9.76857 15.6687 10.0686 15.3686C10.3687 15.0686 10.7757 14.9 11.2 14.9C11.6243 14.9 12.0313 15.0686 12.3314 15.3686C12.6314 15.6687 12.8 16.0756 12.8 16.5ZM20.8 18.1C21.2243 18.1 21.6313 17.9314 21.9314 17.6314C22.2314 17.3313 22.4 16.9243 22.4 16.5C22.4 16.0756 22.2314 15.6687 21.9314 15.3686C21.6313 15.0686 21.2243 14.9 20.8 14.9C20.3757 14.9 19.9687 15.0686 19.6686 15.3686C19.3686 15.6687 19.2 16.0756 19.2 16.5C19.2 16.9243 19.3686 17.3313 19.6686 17.6314C19.9687 17.9314 20.3757 18.1 20.8 18.1Z" fill="url(#paint0_linear_736_899)"/>
<defs>
<linearGradient id="paint0_linear_736_899" x1="16" y1="5.29999" x2="16" y2="29.3011" gradientUnits="userSpaceOnUse">
<stop stop-color="#8063EF"/>
<stop offset="1" stop-color="#755BE6"/>
</linearGradient>
</defs>
</svg>
