<svg width="32" height="33" viewBox="0 0 32 33" fill="none" xmlns="http://www.w3.org/2000/svg">
<path d="M12.792 5.75333C12.912 5.03067 13.5387 4.5 14.272 4.5H17.7293C18.4627 4.5 19.0893 5.03067 19.2093 5.75333L19.4933 7.46133C19.5773 7.96 19.9107 8.376 20.3533 8.62133C20.452 8.67467 20.5493 8.732 20.6467 8.79067C21.0787 9.052 21.6067 9.13333 22.08 8.956L23.7027 8.348C24.0352 8.22294 24.4013 8.21997 24.7358 8.33962C25.0704 8.45926 25.3516 8.69375 25.5293 9.00133L27.2573 11.9973C27.4348 12.3049 27.4973 12.6655 27.4338 13.0149C27.3703 13.3643 27.185 13.6798 26.9107 13.9053L25.5733 15.008C25.1827 15.328 24.9893 15.8253 24.9987 16.3307C25.0008 16.444 25.0008 16.5573 24.9987 16.6707C24.9893 17.1747 25.1827 17.6707 25.572 17.9907L26.912 19.0947C27.4773 19.5613 27.624 20.3667 27.2587 21.0013L25.528 23.9973C25.3505 24.3048 25.0696 24.5394 24.7354 24.6593C24.4011 24.7792 24.0352 24.7766 23.7027 24.652L22.08 24.044C21.6067 23.8667 21.08 23.948 20.6453 24.2093C20.5487 24.2681 20.4509 24.325 20.352 24.38C19.9107 24.624 19.5773 25.04 19.4933 25.5387L19.2093 27.2453C19.0893 27.9693 18.4627 28.5 17.7293 28.5H14.2707C13.5373 28.5 12.9107 27.9693 12.7907 27.2467L12.5067 25.5387C12.424 25.04 12.0907 24.624 11.648 24.3787C11.5491 24.3241 11.4513 24.2677 11.3547 24.2093C10.9213 23.948 10.3947 23.8667 9.92001 24.044L8.29734 24.652C7.96498 24.7767 7.59916 24.7795 7.26494 24.6599C6.93072 24.5402 6.64976 24.3059 6.47201 23.9987L4.74268 21.0027C4.56527 20.6951 4.50274 20.3345 4.56622 19.9851C4.6297 19.6357 4.81507 19.3202 5.08934 19.0947L6.42801 17.992C6.81734 17.672 7.01068 17.1747 7.00134 16.6693C6.99926 16.556 6.99926 16.4427 7.00134 16.3293C7.01068 15.8253 6.81734 15.3293 6.42801 15.0093L5.08934 13.9053C4.8154 13.6799 4.63024 13.3646 4.56677 13.0155C4.5033 12.6664 4.56563 12.3061 4.74268 11.9987L6.47201 9.00267C6.64959 8.69485 6.93069 8.46008 7.26523 8.34018C7.59976 8.22029 7.966 8.22306 8.29868 8.348L9.92001 8.956C10.3947 9.13333 10.9213 9.052 11.3547 8.79067C11.4507 8.732 11.5493 8.67467 11.648 8.62C12.0907 8.376 12.424 7.96 12.5067 7.46133L12.792 5.75333Z" stroke="#333333" stroke-width="2" stroke-linecap="round" stroke-linejoin="round"/>
<path d="M20 16.5C20 17.5609 19.5786 18.5783 18.8284 19.3284C18.0783 20.0786 17.0609 20.5 16 20.5C14.9391 20.5 13.9217 20.0786 13.1716 19.3284C12.4214 18.5783 12 17.5609 12 16.5C12 15.4391 12.4214 14.4217 13.1716 13.6716C13.9217 12.9214 14.9391 12.5 16 12.5C17.0609 12.5 18.0783 12.9214 18.8284 13.6716C19.5786 14.4217 20 15.4391 20 16.5Z" stroke="#333333" stroke-width="2" stroke-linecap="round" stroke-linejoin="round"/>
</svg>
