<svg width="16" height="16" viewBox="0 0 16 16" fill="none" xmlns="http://www.w3.org/2000/svg">
<path d="M10.3636 11.2308V13.3077C10.3636 13.6898 10.046 14 9.65453 14H3.50908C3.32102 14 3.14066 13.9271 3.00768 13.7972C2.8747 13.6674 2.79999 13.4913 2.79999 13.3077V5.46154C2.79999 5.07939 3.11766 4.76923 3.50908 4.76923H4.6909C5.00767 4.76902 5.32391 4.79455 5.63635 4.84554M10.3636 11.2308H12.4909C12.8823 11.2308 13.2 10.9206 13.2 10.5385V7.53846C13.2 4.79385 11.1559 2.51631 8.47272 2.07631C8.16028 2.02531 7.84403 1.99979 7.52726 2H6.34544C5.95402 2 5.63635 2.31016 5.63635 2.69231V4.84554M10.3636 11.2308H6.34544C6.15738 11.2308 5.97702 11.1578 5.84404 11.028C5.71106 10.8982 5.63635 10.7221 5.63635 10.5385V4.84554M13.2 8.92308V7.76923C13.2 7.2184 12.9759 6.69012 12.5769 6.30063C12.178 5.91113 11.6369 5.69231 11.0727 5.69231H10.1273C9.9392 5.69231 9.75884 5.61937 9.62586 5.48954C9.49288 5.3597 9.41817 5.18361 9.41817 5V4.07692C9.41817 3.80418 9.36315 3.5341 9.25624 3.28212C9.14934 3.03014 8.99264 2.80118 8.79511 2.60832C8.59757 2.41546 8.36306 2.26247 8.10497 2.1581C7.84688 2.05372 7.57025 2 7.2909 2H6.58181" stroke="#333333" stroke-linecap="round" stroke-linejoin="round"/>
</svg>
