<svg width="150" height="30" viewBox="0 0 150 30" fill="none" xmlns="http://www.w3.org/2000/svg">
<path d="M26.4144 23.6497C27.3251 22.8558 27.6754 22.0851 27.6754 21.1978V9.05475C27.6754 8.16738 27.3485 7.35006 26.4144 6.6495L31.4818 6.11241C31.295 7.04649 31.2015 7.93386 31.2015 8.93799V13.515C32.2057 12.2773 33.7936 11.2498 35.5917 11.2498C37.67 11.2498 38.9777 12.5809 38.9777 14.9861V21.1978C38.9777 22.0851 39.3047 22.8558 40.2387 23.6497H34.1906C35.1247 22.8558 35.4516 22.0851 35.4516 21.1978V15.8268C35.4516 14.4491 34.8912 13.7718 33.7703 13.7718C32.8595 13.7718 31.9255 14.2389 31.2015 15.0095V21.1978C31.2015 22.0851 31.5285 22.8558 32.4626 23.6497H26.4144Z" fill="#8461C0"/>
<path d="M42.2193 12.2773C43.8306 11.7636 45.7688 11.2498 47.3801 11.2498C50.1589 11.2498 51.9103 12.651 51.9103 15.3831V21.0577C51.9103 22.0851 52.2373 22.8558 53.1713 23.5797L48.5944 24V22.272C47.8938 23.2294 46.5394 24 44.8814 24C42.8965 24 41.6588 22.9025 41.6588 20.8241C41.6588 18.3255 43.5036 17.3914 48.3842 16.2238V15.173C48.3842 13.8653 47.8238 13.188 46.7262 13.188C45.255 13.188 43.3635 14.5892 42.2193 16.4573V12.2773ZM45.3017 19.9835C45.3017 21.4079 45.9789 21.945 46.8196 21.945C47.5435 21.945 48.1273 21.5948 48.3842 21.1044V17.6483C46.1891 17.695 45.3017 18.3488 45.3017 19.9835Z" fill="#8461C0"/>
<path d="M54.2154 23.6497C55.1262 22.8558 55.4764 22.0851 55.4764 21.1978V14.4257C55.4764 13.4683 55.1495 12.5809 54.2154 11.8803L59.2361 11.2498C59.096 12.1139 59.0259 12.9078 59.0026 13.7018C59.7732 12.3474 61.1977 11.2498 62.7622 11.2498C63.2059 11.2498 63.5796 11.3666 63.8131 11.46V16.2238C63.1592 14.9628 62.2018 14.1455 61.0576 14.1455C60.1935 14.1455 59.493 14.6125 59.0026 15.2664V21.1744C59.0026 22.272 59.493 22.9959 60.7773 23.6497H54.2154Z" fill="#8461C0"/>
<path d="M64.888 23.6497C65.7987 22.8558 66.149 22.0851 66.149 21.1978V14.2856C66.149 13.3982 65.8221 12.5809 64.888 11.8803L69.9087 11.2498C69.7919 11.9504 69.7219 12.6042 69.6985 13.2581C70.7026 12.1372 72.1271 11.2498 73.8318 11.2498C75.4431 11.2498 76.6107 12.0905 77.031 13.515C78.0351 12.2773 79.553 11.2498 81.3745 11.2498C83.4528 11.2498 84.7372 12.6042 84.7372 15.0095V21.1978C84.7372 22.0851 85.0874 22.8558 85.9982 23.6497H79.95C80.8841 22.8558 81.211 22.0851 81.211 21.1978V15.8268C81.211 14.4491 80.6506 13.7718 79.553 13.7718C78.7123 13.7718 77.895 14.1688 77.2178 14.7993V21.1978C77.2178 22.0851 77.5448 22.8558 78.4555 23.6497H72.4307C73.3414 22.8558 73.6683 22.0851 73.6683 21.1978V15.8268C73.6683 14.4491 73.1079 13.7718 72.0103 13.7718C71.1697 13.7718 70.3524 14.1688 69.6752 14.7993V21.1978C69.6752 22.0851 70.0021 22.8558 70.9362 23.6497H64.888Z" fill="#8461C0"/>
<path d="M17.4351 23.6497C22.0937 23.6497 25.8702 19.9094 25.8702 15.2955C25.8702 15.0826 25.8622 14.8716 25.8464 14.6627C25.5693 17.7972 22.9124 20.2558 19.6757 20.2558C16.2545 20.2558 13.4811 17.509 13.4811 14.1207C13.4811 10.7324 16.2545 7.98559 19.6757 7.98559C20.7691 7.98559 21.7964 8.26618 22.6881 8.75863C21.2469 7.62113 19.4212 6.94132 17.4351 6.94132C12.7765 6.94132 9 10.6816 9 15.2955C9 19.9094 12.7765 23.6497 17.4351 23.6497Z" fill="#8461C0"/>
<path d="M26.3941 12.2718C26.3574 12.3349 26.2801 12.3618 26.2094 12.3418C25.984 12.2778 25.7201 12.2513 25.4178 12.2621C25.0561 12.273 24.6732 12.3643 24.269 12.5361C23.9152 12.6842 23.6252 12.8688 23.3991 13.0898C23.3455 13.1422 23.2633 13.1557 23.1981 13.1185C23.1342 13.0819 23.1046 13.0068 23.1225 12.9359C23.1984 12.6358 23.2225 12.3187 23.1948 11.9845C23.1619 11.5999 23.064 11.2383 22.9013 10.8999C22.7557 10.5996 22.5829 10.3518 22.3831 10.1565C22.3307 10.1054 22.3167 10.0258 22.3535 9.96272C22.3907 9.89895 22.4685 9.87129 22.5401 9.89149C22.7015 9.93708 22.8778 9.96484 23.069 9.97478C23.306 9.98527 23.5512 9.96572 23.8046 9.9161C24.0565 9.86101 24.3028 9.77952 24.5434 9.67166C24.8558 9.52958 25.1193 9.35424 25.3339 9.1456C25.3866 9.09441 25.4672 9.08158 25.5311 9.11811C25.5959 9.15519 25.6247 9.23229 25.6057 9.30403C25.5575 9.48648 25.5333 9.68884 25.5331 9.91103C25.5349 10.1806 25.5676 10.4494 25.6312 10.7172C25.6913 10.9831 25.7783 11.2227 25.8924 11.4361C26.0344 11.7013 26.1911 11.9153 26.3626 12.0782C26.4158 12.1287 26.431 12.2086 26.3941 12.2718Z" fill="#8461C0"/>
<path d="M96.5059 23.6497C101.164 23.6497 104.941 19.9094 104.941 15.2955C104.941 15.0826 104.933 14.8716 104.917 14.6627C104.64 17.7972 101.983 20.2558 98.7464 20.2558C95.3253 20.2558 92.5519 17.509 92.5519 14.1207C92.5519 10.7324 95.3253 7.98559 98.7464 7.98559C99.8399 7.98559 100.867 8.26618 101.759 8.75863C100.318 7.62113 98.492 6.94132 96.5059 6.94132C91.8473 6.94132 88.0708 10.6816 88.0708 15.2955C88.0708 19.9094 91.8473 23.6497 96.5059 23.6497Z" fill="#8461C0"/>
<path d="M105.465 12.2718C105.428 12.3349 105.351 12.3618 105.28 12.3418C105.055 12.2778 104.791 12.2513 104.489 12.2621C104.127 12.273 103.744 12.3643 103.34 12.5361C102.986 12.6842 102.696 12.8688 102.47 13.0898C102.416 13.1422 102.334 13.1557 102.269 13.1185C102.205 13.0819 102.175 13.0068 102.193 12.9359C102.269 12.6358 102.293 12.3187 102.266 11.9845C102.233 11.5999 102.135 11.2383 101.972 10.8999C101.826 10.5996 101.654 10.3518 101.454 10.1565C101.401 10.1054 101.388 10.0258 101.424 9.96272C101.461 9.89895 101.539 9.87129 101.611 9.89149C101.772 9.93708 101.949 9.96484 102.14 9.97478C102.377 9.98527 102.622 9.96572 102.875 9.9161C103.127 9.86101 103.374 9.77952 103.614 9.67166C103.927 9.52958 104.19 9.35424 104.405 9.1456C104.457 9.09441 104.538 9.08158 104.602 9.11811C104.667 9.15519 104.695 9.23229 104.676 9.30403C104.628 9.48648 104.604 9.68884 104.604 9.91103C104.606 10.1806 104.638 10.4494 104.702 10.7172C104.762 10.9831 104.849 11.2227 104.963 11.4361C105.105 11.7013 105.262 11.9153 105.433 12.0782C105.487 12.1287 105.502 12.2086 105.465 12.2718Z" fill="#8461C0"/>
<path d="M105.552 23.5373C106.462 22.7433 106.813 21.9727 106.813 21.0854V8.94235C106.813 8.05497 106.486 7.23765 105.552 6.5371L110.619 6C110.432 6.93408 110.339 7.82145 110.339 8.82558V13.4026C111.343 12.1649 112.931 11.1374 114.729 11.1374C116.807 11.1374 118.115 12.4685 118.115 14.8737V21.0854C118.115 21.9727 118.442 22.7433 119.376 23.5373H113.328C114.262 22.7433 114.589 21.9727 114.589 21.0854V15.7144C114.589 14.3366 114.028 13.6594 112.907 13.6594C111.997 13.6594 111.063 14.1265 110.339 14.8971V21.0854C110.339 21.9727 110.666 22.7433 111.6 23.5373H105.552Z" fill="#8461C0"/>
<path d="M121.356 12.1649C122.968 11.6512 124.906 11.1374 126.517 11.1374C129.296 11.1374 131.048 12.5385 131.048 15.2707V20.9452C131.048 21.9727 131.374 22.7433 132.309 23.4673L127.732 23.8876V22.1595C127.031 23.117 125.677 23.8876 124.019 23.8876C122.034 23.8876 120.796 22.79 120.796 20.7117C120.796 18.2131 122.641 17.279 127.521 16.1114V15.0606C127.521 13.7528 126.961 13.0756 125.863 13.0756C124.392 13.0756 122.501 14.4768 121.356 16.3449V12.1649ZM124.439 19.8711C124.439 21.2955 125.116 21.8326 125.957 21.8326C126.681 21.8326 127.265 21.4823 127.521 20.992V17.5359C125.326 17.5826 124.439 18.2364 124.439 19.8711Z" fill="#8461C0"/>
<path d="M132.701 13.3792C132.934 12.9122 133.075 12.4218 133.145 11.9781C135.13 11.3009 136.974 9.85307 138.399 7.56458C138.212 8.63877 138.095 9.5962 138.095 10.5536V11.4877H138.866C140.033 11.4877 141.201 11.4644 142.229 11.2075L141.808 13.5894C140.617 13.4493 139.426 13.3792 138.095 13.3792V20.2914C138.095 21.3422 138.609 21.856 139.613 21.856C140.757 21.856 141.925 21.2021 142.649 20.3614C141.832 22.3464 140.244 23.8876 138.002 23.8876C136.134 23.8876 134.569 22.8368 134.569 20.4315V13.3792H132.701Z" fill="#8461C0"/>
</svg>
